<svg viewBox="0 0 440 150" xmlns="http://www.w3.org/2000/svg">
	<defs>
		<linearGradient id="pixwelLg_0" gradientUnits="userSpaceOnUse" x1="3504.4517" y1="-854.6658" x2="3504.4517" y2="-954.526" gradientTransform="matrix(-1 0 0 1 3685.054 980)">
			<stop offset="0" stop-color="#fff" />
			<stop offset="1" stop-color="#fff" stop-opacity="0"/>
		</linearGradient>
		<linearGradient id="pixwelLg_1" gradientUnits="userSpaceOnUse" x1="62.1205" y1="-898.0545" x2="62.1205" y2="-797.7229" gradientTransform="matrix(1 0 0 1 0 980)">
			<stop offset="0" stop-color="#fff" />
			<stop offset="1" stop-color="#000" />
		</linearGradient>
		<linearGradient id="pixwelLg_2" gradientUnits="userSpaceOnUse" x1="105.0241" y1="-898.0588" x2="105.0241" y2="-797.7178" gradientTransform="matrix(1 0 0 1 0 980)">
			<stop offset="0" stop-color="#fff" />
			<stop offset="1" stop-color="#000" />
		</linearGradient>
		<linearGradient id="pixwelLg_3" gradientUnits="userSpaceOnUse" x1="137.0843" y1="-887.7684" x2="137.0843" y2="-960.2145" gradientTransform="matrix(1 0 0 1 0 980)">
			<stop offset="0" stop-color="#fff" />
			<stop offset="1" stop-color="#fff" stop-opacity="0"/>
		</linearGradient>
		<linearGradient id="pixwelLg_4" gradientUnits="userSpaceOnUse" x1="316.0723" y1="-898.0588" x2="316.0723" y2="-797.7178" gradientTransform="matrix(1 0 0 1 0 980)">
			<stop offset="0" stop-color="#fff" />
			<stop offset="1" stop-color="#000" />
		</linearGradient>
		<linearGradient id="pixwelLg_5" gradientUnits="userSpaceOnUse" x1="378.9277" y1="-898.0588" x2="378.9277" y2="-797.7178" gradientTransform="matrix(1 0 0 1 0 980)">
			<stop offset="0" stop-color="#fff" />
			<stop offset="1" stop-color="#000" />
		</linearGradient>
		<linearGradient id="pixwelLg_6" gradientUnits="userSpaceOnUse" x1="235.506" y1="-898.0566" x2="235.506" y2="-797.7207" gradientTransform="matrix(1 0 0 1 0 980)">
			<stop offset="0" stop-color="#fff" />
			<stop offset="1" stop-color="#000" />
		</linearGradient>
	</defs>
	<g>
		<rect width="440" height="150"/>
		<path fill="url(#pixwelLg_0)" d="M133,128.3h-7.8l73.6-106.8H236L133,128.3z" />
		<path fill="url(#pixwelLg_1)" d="M56,107.2c-2.5,0-5.7-0.1-8.2-0.4v21.5H40 V68.3c5.3-0.6,10.6-1,16.5-1c18.6,0,27.8,9,27.8,19.3C84.2,98.7,73.7,107.2,56,107.2z M57.6,73.2c-3.3,0-7.3,0.1-9.8,0.7V101 c2.5,0.3,5.9,0.5,8.7,0.5c13.4,0,19.3-6.6,19.3-14.4C75.7,79.9,69.5,73.2,57.6,73.2z" />
		<path fill="url(#pixwelLg_2)" d="M101.1,128.3V67.6h7.9v60.7H101.1z" />
		<path fill="url(#pixwelLg_3)" d="M184.1,128.3h8.3L118.9,21.5H81.7 L184.1,128.3z" />
		<path fill="url(#pixwelLg_4)" d="M295,128.3V67.6h42.1v6h-34.3v21h30.8v6 h-30.8v21.9h34.3v6L295,128.3L295,128.3z" />
		<path fill="url(#pixwelLg_5)" d="M357.9,128.3V67.6h7.9v54.8H400v6 L357.9,128.3z" />
		<path fill="url(#pixwelLg_6)" d="M259.8,128.2l-1.6,0.1l-22.8-48l-22.4,48 l-1.6-0.1l-19.9-61.7h8l14.2,44.7L235,66h1l21.4,45l14.1-44.5h8L259.8,128.2L259.8,128.2z" />
	</g>
</svg>
