<svg viewBox="0 0 500 150" xmlns="http://www.w3.org/2000/svg">
	<defs>
		<linearGradient id="pixwelLg_0" gradientUnits="userSpaceOnUse" x1="3089.597" y1="935.371" x2="3089.597" y2="1073.511" gradientTransform="rotate(180 1642.527 540)">
			<stop offset="0" stop-color="#fff"/>
			<stop offset="1" stop-color="#fff" stop-opacity="0"/>
		</linearGradient>
		<linearGradient id="pixwelLg_1" gradientUnits="userSpaceOnUse" x1="31.583" y1="995.392" x2="31.583" y2="856.6" gradientTransform="matrix(1 0 0 -1 0 1080)">
			<stop offset="0" stop-color="#fff"/>
			<stop offset="1"/>
		</linearGradient>
		<linearGradient id="pixwelLg_2" gradientUnits="userSpaceOnUse" x1="90.907" y1="995.398" x2="90.907" y2="856.593" gradientTransform="matrix(1 0 0 -1 0 1080)">
			<stop offset="0" stop-color="#fff"/>
			<stop offset="1"/>
		</linearGradient>
		<linearGradient id="pixwelLg_3" gradientUnits="userSpaceOnUse" x1="135.288" y1="981.163" x2="135.288" y2="1081.38" gradientTransform="matrix(1 0 0 -1 0 1080)">
			<stop offset="0" stop-color="#fff"/>
			<stop offset="1" stop-color="#fff" stop-opacity="0"/>
		</linearGradient>
		<linearGradient id="pixwelLg_4" gradientUnits="userSpaceOnUse" x1="382.893" y1="995.398" x2="382.893" y2="856.593" gradientTransform="matrix(1 0 0 -1 0 1080)">
			<stop offset="0" stop-color="#fff"/>
			<stop offset="1"/>
		</linearGradient>
		<linearGradient id="pixwelLg_5" gradientUnits="userSpaceOnUse" x1="469.861" y1="995.398" x2="469.861" y2="856.593" gradientTransform="matrix(1 0 0 -1 0 1080)">
			<stop offset="0" stop-color="#fff"/>
			<stop offset="1"/>
		</linearGradient>
		<linearGradient id="pixwelLg_6" gradientUnits="userSpaceOnUse" x1="271.518" y1="995.395" x2="271.518" y2="856.597" gradientTransform="matrix(1 0 0 -1 0 1080)">
			<stop offset="0" stop-color="#fff"/>
			<stop offset="1"/>
		</linearGradient>
	</defs>
	<g>
		<path fill="url(#pixwelLg_0)" d="M129.7 148.8h-10.8L220.7 1h51.4z"/>
		<path fill="url(#pixwelLg_1)" d="M23.1 119.6c-3.4 0-7.9-.2-11.3-.5v29.7H1V65.7c7.4-.8 14.6-1.4 22.8-1.4 25.7 0 38.4 12.4 38.4 26.7-.1 16.8-14.6 28.6-39.1 28.6zm2.3-47.1c-4.6 0-10.1.2-13.5.9v37.5c3.4.4 8.2.7 12 .7 18.6 0 26.7-9.1 26.7-19.9-.2-9.9-8.8-19.2-25.2-19.2z"/>
		<path fill="url(#pixwelLg_2)" d="M85.5 148.8v-84h10.9v84H85.5z"/>
		<path fill="url(#pixwelLg_3)" d="M200.4 148.8h11.5L110.1 1H58.7z"/>
		<path fill="url(#pixwelLg_4)" d="M353.8 148.8v-84H412v8.3h-47.4v29h42.6v8.3h-42.6v30.3H412v8.3l-58.2-.2z"/>
		<path fill="url(#pixwelLg_5)" d="M440.7 148.8v-84h10.9v75.8H499v8.3l-58.3-.1z"/>
		<path fill="url(#pixwelLg_6)" d="M305.1 148.6l-2.2.2-31.6-66.4-31 66.4-2.2-.2-27.5-85.4h11l19.7 61.9 29.5-62.6h1.4l29.6 62.3 19.5-61.6h11l-27.2 85.4z"/>
	</g>
</svg>
